<?xml version="1.0" encoding="UTF-8" standalone="no"?>
<!-- Created with Inkscape (http://www.inkscape.org/) -->

<svg
   xmlns:dc="http://purl.org/dc/elements/1.1/"
   xmlns:cc="http://creativecommons.org/ns#"
   xmlns:rdf="http://www.w3.org/1999/02/22-rdf-syntax-ns#"
   xmlns:svg="http://www.w3.org/2000/svg"
   xmlns="http://www.w3.org/2000/svg"
   xmlns:sodipodi="http://sodipodi.sourceforge.net/DTD/sodipodi-0.dtd"
   xmlns:inkscape="http://www.inkscape.org/namespaces/inkscape"
   width="256"
   height="256"
   viewBox="0 0 67.733332 67.733335"
   version="1.1"
   id="svg8"
   inkscape:version="0.92.4 (5da689c313, 2019-01-14)"
   sodipodi:docname="sweets.svg"
   inkscape:export-filename="D:\project\Katamari\Assets\Models\sweets.png"
   inkscape:export-xdpi="96"
   inkscape:export-ydpi="96">
  <defs
     id="defs2" />
  <sodipodi:namedview
     id="base"
     pagecolor="#ffffff"
     bordercolor="#666666"
     borderopacity="1.0"
     inkscape:pageopacity="0.0"
     inkscape:pageshadow="2"
     inkscape:zoom="1.979899"
     inkscape:cx="115.61976"
     inkscape:cy="141.11124"
     inkscape:document-units="mm"
     inkscape:current-layer="layer1"
     showgrid="false"
     units="px"
     inkscape:window-width="1920"
     inkscape:window-height="1027"
     inkscape:window-x="-8"
     inkscape:window-y="-8"
     inkscape:window-maximized="1" />
  <metadata
     id="metadata5">
    <rdf:RDF>
      <cc:Work
         rdf:about="">
        <dc:format>image/svg+xml</dc:format>
        <dc:type
           rdf:resource="http://purl.org/dc/dcmitype/StillImage" />
        <dc:title></dc:title>
      </cc:Work>
    </rdf:RDF>
  </metadata>
  <g
     inkscape:label="Layer 1"
     inkscape:groupmode="layer"
     id="layer1"
     transform="translate(0,-229.26665)">
    <path
       style="fill:#37a8ff;fill-opacity:1;stroke-width:1.32009399"
       d="M 0 0 L 0 128 A 63.999996 63.999996 0 0 0 64 192 A 63.999996 63.999996 0 0 0 128 128 A 63.999997 63.999997 0 0 1 192 64 A 63.999997 63.999997 0 0 1 256 128 L 256 0 L 0 0 z "
       transform="matrix(0.26458333,0,0,0.26458333,0,229.26665)"
       id="path817" />
    <path
       inkscape:connector-curvature="0"
       style="fill:#ff00bc;fill-opacity:0.99497485;stroke-width:0.34927487"
       d="M 67.73334,296.99998 V 263.13331 A 16.933332,16.933332 0 0 0 50.8,246.19998 16.933332,16.933332 0 0 0 33.86667,263.13331 16.933333,16.933333 0 0 1 16.93334,280.06665 16.933333,16.933333 0 0 1 0,263.13331 v 33.86667 z"
       id="path817-6" />
    <flowRoot
       xml:space="preserve"
       id="flowRoot853"
       style="font-style:normal;font-weight:normal;font-size:40px;line-height:1.25;font-family:sans-serif;letter-spacing:0px;word-spacing:0px;fill:#ffffff;fill-opacity:1;stroke:none"
       transform="matrix(0.28356064,0,0,0.27985367,-2.8746367,229.19669)"><flowRegion
         id="flowRegion855"
         style="fill:#ffffff;fill-opacity:1"><rect
           id="rect857"
           width="148.49243"
           height="72.225906"
           x="57.578693"
           y="100.43651"
           style="fill:#ffffff;fill-opacity:1" /></flowRegion><flowPara
         id="flowPara859">Sweets</flowPara></flowRoot>  </g>
</svg>
